<svg width="25" height="25" viewBox="0 0 25 25" fill="none" xmlns="http://www.w3.org/2000/svg">
<path d="M11.1111 20.8333H13.8889V18.0556H11.1111V20.8333ZM12.5 4.16667C9.44444 4.16667 6.94444 6.66667 6.94444 9.72222H9.72222C9.72222 8.19444 10.9722 6.94444 12.5 6.94444C14.0278 6.94444 15.2778 8.19444 15.2778 9.72222C15.2778 12.5 11.1111 12.2222 11.1111 16.6667H13.8889C13.8889 13.6111 18.0556 13.1944 18.0556 9.72222C18.0556 6.66667 15.5556 4.16667 12.5 4.16667ZM22.2222 2.77778V22.2222H2.77778V2.77778H22.2222ZM22.2222 0H2.77778C1.25 0 0 1.25 0 2.77778V22.2222C0 23.75 1.25 25 2.77778 25H22.2222C23.75 25 25 23.75 25 22.2222V2.77778C25 1.25 23.75 0 22.2222 0Z" fill="#153C59"/>
</svg>
