<svg width="38" height="38" viewBox="0 0 38 38" fill="none" xmlns="http://www.w3.org/2000/svg">
<path d="M7.91667 31.6673V6.33395H11.0833V17.4173L15.0417 15.0423L19 17.4173V6.33395H26.9167V17.5439C27.4392 17.4648 27.9617 17.4173 28.5 17.4173C29.0383 17.4173 29.5608 17.4648 30.0833 17.5439V6.33395C30.0833 4.59228 28.6583 3.16728 26.9167 3.16728H7.91667C6.175 3.16728 4.75 4.59228 4.75 6.33395V31.6673C4.75 33.4089 6.175 34.8339 7.91667 34.8339H19.4117C18.7467 33.8839 18.2242 32.8073 17.8758 31.6673H7.91667ZM28.5 20.5839C24.13 20.5839 20.5833 24.1306 20.5833 28.5006C20.5833 32.8706 24.13 36.4173 28.5 36.4173C32.87 36.4173 36.4167 32.8706 36.4167 28.5006C36.4167 24.1306 32.87 20.5839 28.5 20.5839ZM26.5208 32.4589V24.5423L32.8542 28.5006L26.5208 32.4589Z" fill="#153C59"/>
</svg>
