<svg width="24" height="19" viewBox="0 0 24 19" fill="none" xmlns="http://www.w3.org/2000/svg">
<path d="M21.8182 0.558824C20.6073 0.167647 19.2764 0 18 0C15.8727 0 13.5818 0.447059 12 1.67647C10.4182 0.447059 8.12727 0 6 0C3.87273 0 1.58182 0.447059 0 1.67647V18.05C0 18.3294 0.272727 18.6088 0.545455 18.6088C0.654545 18.6088 0.709091 18.5529 0.818182 18.5529C2.29091 17.8265 4.41818 17.3235 6 17.3235C8.12727 17.3235 10.4182 17.7706 12 19C13.4727 18.05 16.1455 17.3235 18 17.3235C19.8 17.3235 21.6545 17.6588 23.1818 18.4971C23.2909 18.5529 23.3455 18.5529 23.4545 18.5529C23.7273 18.5529 24 18.2735 24 17.9941V1.67647C23.3455 1.17353 22.6364 0.838235 21.8182 0.558824ZM21.8182 15.6471C20.6182 15.2559 19.3091 15.0882 18 15.0882C16.1455 15.0882 13.4727 15.8147 12 16.7647V3.91176C13.4727 2.96176 16.1455 2.23529 18 2.23529C19.3091 2.23529 20.6182 2.40294 21.8182 2.79412V15.6471Z" fill="#153C59"/>
</svg>
