<svg width="64" height="24" viewBox="0 0 64 24" fill="none" xmlns="http://www.w3.org/2000/svg">
<rect width="64" height="24" rx="4" fill="#DDFBB7"/>
<path d="M16.352 16.608C15.672 16.608 15.056 16.524 14.504 16.356C13.952 16.18 13.472 15.932 13.064 15.612L13.484 14.628C13.756 14.836 14.036 15.008 14.324 15.144C14.62 15.28 14.932 15.384 15.26 15.456C15.596 15.52 15.96 15.552 16.352 15.552C17.024 15.552 17.516 15.432 17.828 15.192C18.148 14.952 18.308 14.636 18.308 14.244C18.308 13.908 18.196 13.648 17.972 13.464C17.756 13.28 17.372 13.132 16.82 13.02L15.512 12.756C14.736 12.596 14.156 12.336 13.772 11.976C13.396 11.608 13.208 11.108 13.208 10.476C13.208 9.964 13.344 9.516 13.616 9.132C13.888 8.748 14.264 8.452 14.744 8.244C15.232 8.036 15.8 7.932 16.448 7.932C17.048 7.932 17.6 8.02 18.104 8.196C18.608 8.364 19.032 8.616 19.376 8.952L18.968 9.9C18.608 9.588 18.224 9.36 17.816 9.216C17.408 9.064 16.944 8.988 16.424 8.988C15.808 8.988 15.324 9.116 14.972 9.372C14.628 9.628 14.456 9.976 14.456 10.416C14.456 10.768 14.564 11.044 14.78 11.244C15.004 11.444 15.372 11.596 15.884 11.7L17.192 11.952C18 12.12 18.596 12.38 18.98 12.732C19.364 13.076 19.556 13.552 19.556 14.16C19.556 14.648 19.424 15.076 19.16 15.444C18.904 15.812 18.536 16.1 18.056 16.308C17.576 16.508 17.008 16.608 16.352 16.608ZM23.1298 16.608C22.4018 16.608 21.8538 16.412 21.4858 16.02C21.1258 15.62 20.9458 15.008 20.9458 14.184V10.452H22.1578V14.16C22.1578 14.664 22.2618 15.036 22.4698 15.276C22.6778 15.516 22.9938 15.636 23.4178 15.636C23.8978 15.636 24.2858 15.476 24.5818 15.156C24.8778 14.836 25.0258 14.412 25.0258 13.884V10.452H26.2378V16.5H25.0618V15.204H25.2178C25.0498 15.652 24.7818 16 24.4138 16.248C24.0458 16.488 23.6178 16.608 23.1298 16.608ZM30.665 16.608C30.057 16.608 29.525 16.484 29.069 16.236C28.621 15.98 28.273 15.616 28.025 15.144C27.785 14.664 27.665 14.096 27.665 13.44C27.665 12.792 27.789 12.236 28.037 11.772C28.285 11.308 28.633 10.956 29.081 10.716C29.529 10.468 30.057 10.344 30.665 10.344C31.057 10.344 31.437 10.412 31.805 10.548C32.173 10.676 32.477 10.86 32.717 11.1L32.321 11.952C32.097 11.736 31.845 11.576 31.565 11.472C31.285 11.36 31.013 11.304 30.749 11.304C30.173 11.304 29.721 11.488 29.393 11.856C29.065 12.224 28.901 12.756 28.901 13.452C28.901 14.156 29.065 14.696 29.393 15.072C29.721 15.448 30.173 15.636 30.749 15.636C31.005 15.636 31.273 15.588 31.553 15.492C31.833 15.388 32.089 15.224 32.321 15L32.717 15.852C32.469 16.092 32.157 16.28 31.781 16.416C31.413 16.544 31.041 16.608 30.665 16.608ZM36.6801 16.608C35.7041 16.608 34.9361 16.332 34.3761 15.78C33.8161 15.228 33.5361 14.464 33.5361 13.488C33.5361 12.856 33.6561 12.304 33.8961 11.832C34.1441 11.36 34.4841 10.996 34.9161 10.74C35.3561 10.476 35.8641 10.344 36.4401 10.344C37.0081 10.344 37.4841 10.464 37.8681 10.704C38.2521 10.944 38.5441 11.284 38.7441 11.724C38.9441 12.156 39.0441 12.668 39.0441 13.26V13.644H34.4841V12.948H38.2161L38.0121 13.104C38.0121 12.504 37.8761 12.04 37.6041 11.712C37.3401 11.376 36.9561 11.208 36.4521 11.208C35.8921 11.208 35.4601 11.404 35.1561 11.796C34.8521 12.18 34.7001 12.712 34.7001 13.392V13.512C34.7001 14.224 34.8721 14.76 35.2161 15.12C35.5681 15.48 36.0641 15.66 36.7041 15.66C37.0561 15.66 37.3841 15.612 37.6881 15.516C38.0001 15.412 38.2961 15.244 38.5761 15.012L38.9721 15.84C38.6921 16.088 38.3521 16.28 37.9521 16.416C37.5521 16.544 37.1281 16.608 36.6801 16.608ZM42.5109 16.608C42.0069 16.608 41.5429 16.544 41.1189 16.416C40.6949 16.288 40.3429 16.108 40.0629 15.876L40.4349 15.048C40.7309 15.272 41.0589 15.44 41.4189 15.552C41.7789 15.664 42.1469 15.72 42.5229 15.72C42.9629 15.72 43.2949 15.644 43.5189 15.492C43.7429 15.332 43.8549 15.116 43.8549 14.844C43.8549 14.636 43.7829 14.468 43.6389 14.34C43.5029 14.212 43.2749 14.116 42.9549 14.052L41.8029 13.824C41.2909 13.712 40.9029 13.52 40.6389 13.248C40.3749 12.976 40.2429 12.628 40.2429 12.204C40.2429 11.844 40.3389 11.524 40.5309 11.244C40.7309 10.964 41.0109 10.744 41.3709 10.584C41.7389 10.424 42.1669 10.344 42.6549 10.344C43.1029 10.344 43.5189 10.408 43.9029 10.536C44.2869 10.664 44.6069 10.848 44.8629 11.088L44.4789 11.892C44.2309 11.684 43.9509 11.524 43.6389 11.412C43.3269 11.292 43.0109 11.232 42.6909 11.232C42.2429 11.232 41.9109 11.316 41.6949 11.484C41.4789 11.652 41.3709 11.872 41.3709 12.144C41.3709 12.352 41.4349 12.524 41.5629 12.66C41.6989 12.788 41.9109 12.888 42.1989 12.96L43.3509 13.188C43.8949 13.3 44.3029 13.484 44.5749 13.74C44.8469 13.996 44.9829 14.34 44.9829 14.772C44.9829 15.148 44.8789 15.476 44.6709 15.756C44.4629 16.036 44.1749 16.248 43.8069 16.392C43.4389 16.536 43.0069 16.608 42.5109 16.608ZM48.4874 16.608C47.9834 16.608 47.5194 16.544 47.0954 16.416C46.6714 16.288 46.3194 16.108 46.0394 15.876L46.4114 15.048C46.7074 15.272 47.0354 15.44 47.3954 15.552C47.7554 15.664 48.1234 15.72 48.4994 15.72C48.9394 15.72 49.2714 15.644 49.4954 15.492C49.7194 15.332 49.8314 15.116 49.8314 14.844C49.8314 14.636 49.7594 14.468 49.6154 14.34C49.4794 14.212 49.2514 14.116 48.9314 14.052L47.7794 13.824C47.2674 13.712 46.8794 13.52 46.6154 13.248C46.3514 12.976 46.2194 12.628 46.2194 12.204C46.2194 11.844 46.3154 11.524 46.5074 11.244C46.7074 10.964 46.9874 10.744 47.3474 10.584C47.7154 10.424 48.1434 10.344 48.6314 10.344C49.0794 10.344 49.4954 10.408 49.8794 10.536C50.2634 10.664 50.5834 10.848 50.8394 11.088L50.4554 11.892C50.2074 11.684 49.9274 11.524 49.6154 11.412C49.3034 11.292 48.9874 11.232 48.6674 11.232C48.2194 11.232 47.8874 11.316 47.6714 11.484C47.4554 11.652 47.3474 11.872 47.3474 12.144C47.3474 12.352 47.4114 12.524 47.5394 12.66C47.6754 12.788 47.8874 12.888 48.1754 12.96L49.3274 13.188C49.8714 13.3 50.2794 13.484 50.5514 13.74C50.8234 13.996 50.9594 14.34 50.9594 14.772C50.9594 15.148 50.8554 15.476 50.6474 15.756C50.4394 16.036 50.1514 16.248 49.7834 16.392C49.4154 16.536 48.9834 16.608 48.4874 16.608Z" fill="#2B5908"/>
</svg>
