<svg width="64" height="24" viewBox="0 0 64 24" fill="none" xmlns="http://www.w3.org/2000/svg">
<rect width="64" height="24" rx="4" fill="#F8C4C5"/>
<path d="M18.996 16.5V8.04H24.54V9.036H20.208V11.7H24.264V12.708H20.208V15.492H24.54V16.5H18.996ZM25.9538 16.5V11.952C25.9538 11.704 25.9458 11.456 25.9298 11.208C25.9218 10.952 25.9058 10.7 25.8818 10.452H27.0578L27.1898 12.012H26.9978C27.0778 11.636 27.2138 11.324 27.4058 11.076C27.5978 10.828 27.8298 10.644 28.1018 10.524C28.3818 10.404 28.6738 10.344 28.9778 10.344C29.1058 10.344 29.2138 10.352 29.3018 10.368C29.3898 10.376 29.4778 10.392 29.5658 10.416L29.5538 11.496C29.4178 11.44 29.2978 11.408 29.1938 11.4C29.0978 11.384 28.9778 11.376 28.8338 11.376C28.4818 11.376 28.1818 11.456 27.9338 11.616C27.6858 11.768 27.4978 11.976 27.3698 12.24C27.2418 12.504 27.1778 12.788 27.1778 13.092V16.5H25.9538ZM30.4773 16.5V11.952C30.4773 11.704 30.4693 11.456 30.4533 11.208C30.4453 10.952 30.4293 10.7 30.4053 10.452H31.5813L31.7133 12.012H31.5213C31.6013 11.636 31.7373 11.324 31.9293 11.076C32.1213 10.828 32.3533 10.644 32.6253 10.524C32.9053 10.404 33.1973 10.344 33.5013 10.344C33.6293 10.344 33.7373 10.352 33.8253 10.368C33.9133 10.376 34.0013 10.392 34.0893 10.416L34.0773 11.496C33.9413 11.44 33.8213 11.408 33.7173 11.4C33.6213 11.384 33.5013 11.376 33.3573 11.376C33.0053 11.376 32.7053 11.456 32.4573 11.616C32.2093 11.768 32.0213 11.976 31.8933 12.24C31.7653 12.504 31.7013 12.788 31.7013 13.092V16.5H30.4773ZM37.5347 16.608C36.9347 16.608 36.4147 16.484 35.9747 16.236C35.5347 15.98 35.1947 15.62 34.9547 15.156C34.7147 14.684 34.5947 14.124 34.5947 13.476C34.5947 12.828 34.7147 12.272 34.9547 11.808C35.1947 11.336 35.5347 10.976 35.9747 10.728C36.4147 10.472 36.9347 10.344 37.5347 10.344C38.1347 10.344 38.6547 10.472 39.0947 10.728C39.5427 10.976 39.8867 11.336 40.1267 11.808C40.3747 12.272 40.4987 12.828 40.4987 13.476C40.4987 14.124 40.3747 14.684 40.1267 15.156C39.8867 15.62 39.5427 15.98 39.0947 16.236C38.6547 16.484 38.1347 16.608 37.5347 16.608ZM37.5347 15.66C38.0627 15.66 38.4827 15.476 38.7947 15.108C39.1067 14.74 39.2627 14.196 39.2627 13.476C39.2627 12.756 39.1067 12.216 38.7947 11.856C38.4827 11.488 38.0627 11.304 37.5347 11.304C37.0147 11.304 36.5987 11.488 36.2867 11.856C35.9747 12.216 35.8187 12.756 35.8187 13.476C35.8187 14.196 35.9707 14.74 36.2747 15.108C36.5867 15.476 37.0067 15.66 37.5347 15.66ZM41.8913 16.5V11.952C41.8913 11.704 41.8833 11.456 41.8673 11.208C41.8593 10.952 41.8433 10.7 41.8193 10.452H42.9953L43.1273 12.012H42.9353C43.0153 11.636 43.1513 11.324 43.3433 11.076C43.5353 10.828 43.7673 10.644 44.0393 10.524C44.3193 10.404 44.6113 10.344 44.9153 10.344C45.0433 10.344 45.1513 10.352 45.2393 10.368C45.3273 10.376 45.4153 10.392 45.5033 10.416L45.4913 11.496C45.3553 11.44 45.2353 11.408 45.1313 11.4C45.0353 11.384 44.9153 11.376 44.7713 11.376C44.4193 11.376 44.1193 11.456 43.8713 11.616C43.6233 11.768 43.4353 11.976 43.3073 12.24C43.1793 12.504 43.1153 12.788 43.1153 13.092V16.5H41.8913Z" fill="#62272C"/>
</svg>
