<svg width="30" height="30" viewBox="0 0 30 30" fill="none" xmlns="http://www.w3.org/2000/svg">
<path d="M3.4328 25.3125C2.83046 25.3125 2.31576 25.098 1.88867 24.6691C1.46159 24.2402 1.24805 23.7246 1.24805 23.1222C1.24805 22.5199 1.46153 22.0052 1.88848 21.5781C2.31544 21.151 2.8287 20.9375 3.42827 20.9375C3.53729 20.9375 3.64388 20.9427 3.74805 20.9531C3.85221 20.9635 3.98763 20.9896 4.1543 21.0313L10.4043 14.7813C10.3626 14.6146 10.3366 14.4792 10.3262 14.375C10.3158 14.2708 10.3105 14.1642 10.3105 14.0552C10.3105 13.4557 10.525 12.9424 10.954 12.5154C11.3829 12.0885 11.8985 11.875 12.5008 11.875C13.1031 11.875 13.6178 12.0899 14.0449 12.5198C14.472 12.9497 14.6855 13.4665 14.6855 14.0701C14.6855 14.1067 14.6543 14.3438 14.5918 14.7813L18.0293 18.2188C18.196 18.1771 18.3314 18.151 18.4355 18.1406C18.5397 18.1302 18.6439 18.125 18.748 18.125C18.8522 18.125 18.9564 18.1302 19.0605 18.1406C19.1647 18.151 19.3001 18.1771 19.4668 18.2188L24.4668 13.2188C24.4251 13.0521 24.3991 12.9167 24.3887 12.8125C24.3783 12.7083 24.373 12.6017 24.373 12.4927C24.373 11.8932 24.5875 11.3799 25.0165 10.9529C25.4454 10.526 25.961 10.3125 26.5633 10.3125C27.1656 10.3125 27.6803 10.527 28.1074 10.9559C28.5345 11.3848 28.748 11.9004 28.748 12.5028C28.748 13.1051 28.5346 13.6198 28.1076 14.0469C27.6807 14.474 27.1674 14.6875 26.5678 14.6875C26.4588 14.6875 26.3522 14.6823 26.248 14.6719C26.1439 14.6615 26.0085 14.6354 25.8418 14.5938L20.8418 19.5938C20.8835 19.7604 20.9095 19.8958 20.9199 20C20.9303 20.1042 20.9355 20.2108 20.9355 20.3198C20.9355 20.9193 20.7211 21.4326 20.2921 21.8596C19.8632 22.2865 19.3476 22.5 18.7453 22.5C18.143 22.5 17.6283 22.2865 17.2012 21.8596C16.7741 21.4326 16.5605 20.9193 16.5605 20.3198C16.5605 20.2108 16.5658 20.1042 16.5762 20C16.5866 19.8958 16.6126 19.7604 16.6543 19.5938L13.2168 16.1563C13.0501 16.1979 12.9147 16.224 12.8105 16.2344C12.7064 16.2448 12.5996 16.25 12.4902 16.25C12.4538 16.25 12.2168 16.2188 11.7793 16.1563L5.5293 22.4063C5.57096 22.5729 5.59701 22.7083 5.60742 22.8125C5.61784 22.9167 5.62305 23.0233 5.62305 23.1323C5.62305 23.7318 5.40858 24.2451 4.97964 24.6721C4.55072 25.099 4.03511 25.3125 3.4328 25.3125Z" fill="#153C59"/>
<path d="M18.1135 6.00818L19.2732 8.51054C19.3627 8.70372 19.6373 8.70372 19.7268 8.51054L20.8865 6.00818C20.9114 5.95449 20.9545 5.91136 21.0082 5.88647L23.5105 4.72683C23.7037 4.6373 23.7037 4.3627 23.5105 4.27317L21.0082 3.11353C20.9545 3.08864 20.9114 3.04551 20.8865 2.99182L19.7268 0.489461C19.6373 0.296283 19.3627 0.296283 19.2732 0.489461L18.1135 2.99182C18.0886 3.04551 18.0455 3.08864 17.9918 3.11353L15.4895 4.27317C15.2963 4.3627 15.2963 4.6373 15.4895 4.72683L17.9918 5.88647C18.0455 5.91136 18.0886 5.95449 18.1135 6.00818Z" fill="#153C59"/>
<path d="M4.10103 9.52068L5.02317 11.5105C5.1127 11.7037 5.3873 11.7037 5.47683 11.5105L6.39897 9.52068C6.42386 9.46698 6.46698 9.42386 6.52068 9.39897L8.51054 8.47683C8.70372 8.38731 8.70372 8.1127 8.51054 8.02317L6.52068 7.10103C6.46698 7.07614 6.42386 7.03302 6.39897 6.97932L5.47683 4.98946C5.3873 4.79628 5.1127 4.79628 5.02317 4.98946L4.10103 6.97932C4.07614 7.03302 4.03302 7.07614 3.97932 7.10103L1.98946 8.02317C1.79628 8.1127 1.79628 8.38731 1.98946 8.47683L3.97932 9.39897C4.03302 9.42386 4.07614 9.46699 4.10103 9.52068Z" fill="#153C59"/>
</svg>
