<svg width="160" height="34" viewBox="0 0 160 34" fill="none" xmlns="http://www.w3.org/2000/svg">
<g clip-path="url(#clip0_3758_19591)">
<path d="M52.8177 17.8601H68.4723V14.4406H52.8177V17.8601ZM66.0881 5.97015V27.9305H69.79V5.97015H66.0881ZM51.3433 5.97015V27.9305H55.0452V5.97015H51.3433Z" fill="#153C59"/>
<path d="M73.308 20.715C73.308 22.179 73.6427 23.4862 74.3119 24.6365C75.0021 25.7659 75.9328 26.6547 77.104 27.3031C78.2753 27.9305 79.6033 28.2442 81.0883 28.2442C82.5732 28.2442 83.8908 27.9305 85.0411 27.3031C86.2124 26.6547 87.1431 25.7659 87.8332 24.6365C88.5234 23.4862 88.8685 22.179 88.8685 20.715C88.8685 19.23 88.5234 17.9229 87.8332 16.7935C87.1431 15.6641 86.2124 14.7857 85.0411 14.1582C83.8908 13.5099 82.5732 13.1857 81.0883 13.1857C79.6033 13.1857 78.2753 13.5099 77.104 14.1582C75.9328 14.7857 75.0021 15.6641 74.3119 16.7935C73.6427 17.9229 73.308 19.23 73.308 20.715ZM76.7903 20.715C76.7903 19.8156 76.9785 19.0209 77.355 18.3307C77.7315 17.6405 78.2439 17.1072 78.8922 16.7307C79.5406 16.3543 80.2726 16.166 81.0883 16.166C81.883 16.166 82.6046 16.3543 83.2529 16.7307C83.9222 17.1072 84.4451 17.6405 84.8215 18.3307C85.198 19.0209 85.3862 19.8156 85.3862 20.715C85.3862 21.6143 85.198 22.4091 84.8215 23.0992C84.4451 23.7685 83.9222 24.3018 83.2529 24.6992C82.6046 25.0757 81.883 25.2639 81.0883 25.2639C80.2726 25.2639 79.5406 25.0757 78.8922 24.6992C78.2439 24.3018 77.7315 23.7685 77.355 23.0992C76.9785 22.4091 76.7903 21.6143 76.7903 20.715Z" fill="#153C59"/>
<path d="M112.726 18.7699C112.726 17.5778 112.559 16.5634 112.224 15.7268C111.89 14.8902 111.377 14.2628 110.687 13.8445C110.018 13.4053 109.171 13.1857 108.146 13.1857C107.163 13.1857 106.284 13.4053 105.511 13.8445C104.758 14.2837 104.13 14.9216 103.628 15.7582C103.315 14.9216 102.802 14.2837 102.091 13.8445C101.401 13.4053 100.522 13.1857 99.4558 13.1857C98.5356 13.1857 97.7304 13.3948 97.0402 13.8131C96.3709 14.2105 95.8271 14.8066 95.4088 15.6013V13.4994H92.0834V27.9305H95.4088V19.1464C95.4088 18.4562 95.5239 17.8706 95.7539 17.3895C95.984 16.9085 96.3082 16.5425 96.7264 16.2915C97.1657 16.0405 97.6781 15.9151 98.2637 15.9151C99.1003 15.9151 99.7068 16.1869 100.083 16.7307C100.481 17.2536 100.679 18.0588 100.679 19.1464V27.9305H104.067V19.1464C104.067 18.4562 104.183 17.8706 104.413 17.3895C104.664 16.9085 104.998 16.5425 105.416 16.2915C105.856 16.0405 106.358 15.9151 106.922 15.9151C107.759 15.9151 108.365 16.1869 108.742 16.7307C109.139 17.2536 109.338 18.0588 109.338 19.1464V27.9305H112.726V18.7699Z" fill="#153C59"/>
<path d="M123.327 28.2442C125 28.2442 126.432 27.9201 127.625 27.2717C128.817 26.6234 129.789 25.6508 130.542 24.3541L127.625 23.162C127.165 23.9358 126.589 24.511 125.899 24.8874C125.209 25.2639 124.404 25.4521 123.484 25.4521C122.605 25.4521 121.852 25.2639 121.225 24.8874C120.618 24.511 120.158 23.9672 119.844 23.2561C119.531 22.5241 119.374 21.6352 119.374 20.5895C119.395 19.5437 119.562 18.6653 119.876 17.9542C120.189 17.2431 120.65 16.6994 121.256 16.3229C121.863 15.9464 122.595 15.7582 123.452 15.7582C124.163 15.7582 124.78 15.9151 125.303 16.2288C125.847 16.5425 126.265 16.9817 126.558 17.5464C126.872 18.1111 127.029 18.7804 127.029 19.5542C127.029 19.7006 126.987 19.8888 126.903 20.1189C126.84 20.328 126.778 20.4954 126.715 20.6209L127.75 19.1777H117.962V21.4993H130.636C130.657 21.4156 130.668 21.2797 130.668 21.0914C130.689 20.9032 130.699 20.7254 130.699 20.5581C130.699 19.0104 130.406 17.6928 129.821 16.6052C129.256 15.4968 128.44 14.6497 127.374 14.0641C126.307 13.4785 125.01 13.1857 123.484 13.1857C121.957 13.1857 120.629 13.4994 119.499 14.1269C118.37 14.7334 117.491 15.6013 116.864 16.7307C116.258 17.8601 115.954 19.1882 115.954 20.715C115.954 22.2208 116.258 23.5384 116.864 24.6678C117.471 25.7972 118.328 26.6756 119.437 27.3031C120.566 27.9305 121.863 28.2442 123.327 28.2442Z" fill="#153C59"/>
<path d="M137.29 13.4994H133.933V27.9305H137.29V13.4994ZM141.588 17.1072L143.219 14.2523C142.905 13.855 142.519 13.5831 142.058 13.4367C141.598 13.2694 141.107 13.1857 140.584 13.1857C139.852 13.1857 139.141 13.4471 138.451 13.97C137.781 14.4929 137.227 15.204 136.788 16.1033C136.37 16.9817 136.16 17.9961 136.16 19.1464L137.29 19.8052C137.29 19.115 137.363 18.5189 137.509 18.017C137.677 17.4941 137.938 17.0863 138.294 16.7935C138.649 16.5007 139.109 16.3543 139.674 16.3543C140.092 16.3543 140.438 16.417 140.709 16.5425C140.981 16.668 141.274 16.8562 141.588 17.1072Z" fill="#153C59"/>
<path d="M143.987 20.715C143.987 22.179 144.321 23.4862 144.991 24.6365C145.681 25.7659 146.612 26.6547 147.783 27.3031C148.954 27.9305 150.282 28.2442 151.767 28.2442C153.252 28.2442 154.57 27.9305 155.72 27.3031C156.891 26.6547 157.822 25.7659 158.512 24.6365C159.202 23.4862 159.547 22.179 159.547 20.715C159.547 19.23 159.202 17.9229 158.512 16.7935C157.822 15.6641 156.891 14.7857 155.72 14.1582C154.57 13.5099 153.252 13.1857 151.767 13.1857C150.282 13.1857 148.954 13.5099 147.783 14.1582C146.612 14.7857 145.681 15.6641 144.991 16.7935C144.321 17.9229 143.987 19.23 143.987 20.715ZM147.469 20.715C147.469 19.8156 147.657 19.0209 148.034 18.3307C148.41 17.6405 148.923 17.1072 149.571 16.7307C150.219 16.3543 150.951 16.166 151.767 16.166C152.562 16.166 153.283 16.3543 153.932 16.7307C154.601 17.1072 155.124 17.6405 155.5 18.3307C155.877 19.0209 156.065 19.8156 156.065 20.715C156.065 21.6143 155.877 22.4091 155.5 23.0992C155.124 23.7685 154.601 24.3018 153.932 24.6992C153.283 25.0757 152.562 25.2639 151.767 25.2639C150.951 25.2639 150.219 25.0757 149.571 24.6992C148.923 24.3018 148.41 23.7685 148.034 23.0992C147.657 22.4091 147.469 21.6143 147.469 20.715Z" fill="#153C59"/>
<path d="M9.13428 20.2985V28.5329C7.91333 28.5193 8.92087 28.5329 7.16417 28.5329" stroke="#153C59" stroke-width="2.25539" stroke-linecap="square" stroke-linejoin="round"/>
<mask id="path-3-inside-1_3758_19591" fill="white">
<path d="M4.01922 27.3742C4.31806 27.3761 4.60499 27.4954 4.8218 27.7077C5.0386 27.92 5.16903 28.2095 5.18665 28.5175C5.20427 28.8254 5.10774 29.1287 4.91666 29.3659C4.72558 29.6031 4.45426 29.7564 4.15772 29.7946C3.86118 29.8329 3.56164 29.7533 3.31988 29.572C3.07812 29.3906 2.91223 29.1212 2.85588 28.8182C2.79953 28.5153 2.85694 28.2015 3.01644 27.9406C3.17594 27.6798 3.42562 27.4913 3.71479 27.4135C3.81416 27.3866 3.91652 27.3734 4.01922 27.3742ZM4.01922 25.6907C3.52415 25.687 3.03697 25.8188 2.60726 26.0726C2.17755 26.3264 1.82066 26.6932 1.57289 27.1357C1.32473 27.5782 1.19404 28.0805 1.19403 28.5919C1.19402 29.1032 1.32468 29.6055 1.57282 30.0481C1.82096 30.4906 2.1778 30.8578 2.60732 31.1125C3.03685 31.3672 3.52387 31.5005 4.01922 31.4988C4.76535 31.4988 5.48091 31.1928 6.0085 30.6482C6.53609 30.1036 6.83251 29.3649 6.83251 28.5947C6.83251 27.8245 6.53609 27.0859 6.0085 26.5413C5.48091 25.9967 4.76535 25.6907 4.01922 25.6907Z"/>
</mask>
<path d="M4.01922 27.3742C4.31806 27.3761 4.60499 27.4954 4.8218 27.7077C5.0386 27.92 5.16903 28.2095 5.18665 28.5175C5.20427 28.8254 5.10774 29.1287 4.91666 29.3659C4.72558 29.6031 4.45426 29.7564 4.15772 29.7946C3.86118 29.8329 3.56164 29.7533 3.31988 29.572C3.07812 29.3906 2.91223 29.1212 2.85588 28.8182C2.79953 28.5153 2.85694 28.2015 3.01644 27.9406C3.17594 27.6798 3.42562 27.4913 3.71479 27.4135C3.81416 27.3866 3.91652 27.3734 4.01922 27.3742ZM4.01922 25.6907C3.52415 25.687 3.03697 25.8188 2.60726 26.0726C2.17755 26.3264 1.82066 26.6932 1.57289 27.1357C1.32473 27.5782 1.19404 28.0805 1.19403 28.5919C1.19402 29.1032 1.32468 29.6055 1.57282 30.0481C1.82096 30.4906 2.1778 30.8578 2.60732 31.1125C3.03685 31.3672 3.52387 31.5005 4.01922 31.4988C4.76535 31.4988 5.48091 31.1928 6.0085 30.6482C6.53609 30.1036 6.83251 29.3649 6.83251 28.5947C6.83251 27.8245 6.53609 27.0859 6.0085 26.5413C5.48091 25.9967 4.76535 25.6907 4.01922 25.6907Z" fill="#153C59"/>
<path d="M4.01922 27.3742L4.00573 29.1722L4.00743 29.1722L4.01922 27.3742ZM3.71479 27.4135L4.18213 29.1498L4.18376 29.1493L3.71479 27.4135ZM4.01922 25.6907L4.0059 27.4888H4.01922V25.6907ZM1.57289 27.1357L3.14123 28.0152L3.14174 28.0142L1.57289 27.1357ZM4.01922 31.4988V29.7007L4.01317 29.7007L4.01922 31.4988ZM6.83251 28.5947H5.03441H6.83251ZM4.00743 29.1722C3.83206 29.1711 3.67435 29.1007 3.56372 28.9924L6.07987 26.423C5.53563 25.89 4.80407 25.5812 4.03102 25.5761L4.00743 29.1722ZM3.56372 28.9924C3.45471 28.8856 3.39898 28.7511 3.39149 28.6202L6.98181 28.4147C6.93907 27.6679 6.62249 26.9544 6.07987 26.423L3.56372 28.9924ZM3.39149 28.6202C3.384 28.4893 3.42398 28.3526 3.51643 28.2379L6.31689 30.494C6.7915 29.9048 7.02454 29.1615 6.98181 28.4147L3.39149 28.6202ZM3.51643 28.2379C3.61022 28.1214 3.75469 28.0336 3.92761 28.0113L4.38782 31.5779C5.15382 31.4791 5.84093 31.0848 6.31689 30.494L3.51643 28.2379ZM3.92761 28.0113C4.10116 27.9889 4.27023 28.0371 4.39878 28.1335L2.24097 31.0104C2.85304 31.4695 3.62121 31.6769 4.38782 31.5779L3.92761 28.0113ZM4.39878 28.1335C4.52538 28.2285 4.59937 28.3588 4.62365 28.4894L1.08811 29.147C1.2251 29.8835 1.63086 30.5528 2.24097 31.0104L4.39878 28.1335ZM4.62365 28.4894C4.64783 28.6193 4.62465 28.7573 4.55051 28.8786L1.48238 27.0027C1.08923 27.6457 0.951223 28.4112 1.08811 29.147L4.62365 28.4894ZM4.55051 28.8786C4.47536 29.0015 4.34787 29.1052 4.18212 29.1498L3.24746 25.6772C2.50337 25.8774 1.87652 26.358 1.48238 27.0027L4.55051 28.8786ZM4.18376 29.1493C4.12625 29.1649 4.06631 29.1727 4.00573 29.1722L4.03272 25.5761C3.76672 25.5741 3.50207 25.6084 3.24582 25.6776L4.18376 29.1493ZM4.03255 23.8926C3.20851 23.8865 2.40098 24.1061 1.69278 24.5244L3.52174 27.6208C3.67295 27.5315 3.83979 27.4875 4.0059 27.4887L4.03255 23.8926ZM1.69278 24.5244C0.985034 24.9425 0.404333 25.5423 0.00403273 26.2572L3.14174 28.0142C3.23698 27.8442 3.37007 27.7104 3.52174 27.6208L1.69278 24.5244ZM0.00454366 26.2562C-0.395479 26.9696 -0.604045 27.775 -0.604065 28.5918L2.99213 28.5919C2.99213 28.386 3.04493 28.1869 3.14123 28.0152L0.00454366 26.2562ZM-0.604065 28.5918C-0.604085 29.4087 -0.395541 30.2141 0.00443327 30.9274L3.14121 29.1687C3.0449 28.9969 2.99212 28.7978 2.99213 28.5919L-0.604065 28.5918ZM0.00443327 30.9274C0.404618 31.6412 0.984159 32.2404 1.69019 32.6591L3.52446 29.5659C3.37143 29.4751 3.2373 29.3401 3.14121 29.1687L0.00443327 30.9274ZM1.69019 32.6591C2.39664 33.078 3.20229 33.2996 4.02528 33.2969L4.01317 29.7007C3.84545 29.7013 3.67707 29.6564 3.52446 29.5659L1.69019 32.6591ZM4.01922 33.2969C5.26103 33.2969 6.43991 32.7871 7.29996 31.8993L4.71703 29.3971C4.5219 29.5985 4.26968 29.7007 4.01922 29.7007V33.2969ZM7.29996 31.8993C8.15816 31.0134 8.6306 29.8237 8.6306 28.5947H5.03441C5.03441 28.9061 4.91403 29.1937 4.71703 29.3971L7.29996 31.8993ZM8.6306 28.5947C8.6306 27.3657 8.15814 26.176 7.29996 25.2902L4.71703 27.7924C4.91404 27.9957 5.03441 28.2833 5.03441 28.5947H8.6306ZM7.29996 25.2902C6.43991 24.4024 5.26103 23.8926 4.01922 23.8926V27.4888C4.26968 27.4888 4.5219 27.591 4.71703 27.7924L7.29996 25.2902Z" fill="#153C59" mask="url(#path-3-inside-1_3758_19591)"/>
<path d="M30.2687 21.4926V28.5329C31.4897 28.5193 30.4821 28.5329 32.2388 28.5329" stroke="#153C59" stroke-width="2.25539" stroke-linecap="square" stroke-linejoin="round"/>
<mask id="path-6-inside-2_3758_19591" fill="white">
<path d="M35.3838 27.3742C35.085 27.3761 34.798 27.4954 34.5812 27.7077C34.3644 27.92 34.234 28.2095 34.2164 28.5175C34.1987 28.8254 34.2953 29.1287 34.4864 29.3659C34.6774 29.6031 34.9488 29.7564 35.2453 29.7946C35.5418 29.8329 35.8414 29.7533 36.0831 29.572C36.3249 29.3906 36.4908 29.1212 36.5471 28.8182C36.6035 28.5153 36.5461 28.2015 36.3866 27.9406C36.2271 27.6798 35.9774 27.4913 35.6882 27.4135C35.5889 27.3866 35.4865 27.3734 35.3838 27.3742ZM35.3838 25.6907C35.8789 25.687 36.366 25.8188 36.7958 26.0726C37.2255 26.3264 37.5824 26.6932 37.8301 27.1357C38.0783 27.5782 38.209 28.0805 38.209 28.5919C38.209 29.1032 38.0783 29.6055 37.8302 30.0481C37.5821 30.4906 37.2252 30.8578 36.7957 31.1125C36.3662 31.3672 35.8791 31.5005 35.3838 31.4988C34.6377 31.4988 33.9221 31.1928 33.3945 30.6482C32.8669 30.1036 32.5705 29.3649 32.5705 28.5947C32.5705 27.8245 32.8669 27.0859 33.3945 26.5413C33.9221 25.9967 34.6377 25.6907 35.3838 25.6907Z"/>
</mask>
<path d="M35.3838 27.3742C35.085 27.3761 34.798 27.4954 34.5812 27.7077C34.3644 27.92 34.234 28.2095 34.2164 28.5175C34.1987 28.8254 34.2953 29.1287 34.4864 29.3659C34.6774 29.6031 34.9488 29.7564 35.2453 29.7946C35.5418 29.8329 35.8414 29.7533 36.0831 29.572C36.3249 29.3906 36.4908 29.1212 36.5471 28.8182C36.6035 28.5153 36.5461 28.2015 36.3866 27.9406C36.2271 27.6798 35.9774 27.4913 35.6882 27.4135C35.5889 27.3866 35.4865 27.3734 35.3838 27.3742ZM35.3838 25.6907C35.8789 25.687 36.366 25.8188 36.7958 26.0726C37.2255 26.3264 37.5824 26.6932 37.8301 27.1357C38.0783 27.5782 38.209 28.0805 38.209 28.5919C38.209 29.1032 38.0783 29.6055 37.8302 30.0481C37.5821 30.4906 37.2252 30.8578 36.7957 31.1125C36.3662 31.3672 35.8791 31.5005 35.3838 31.4988C34.6377 31.4988 33.9221 31.1928 33.3945 30.6482C32.8669 30.1036 32.5705 29.3649 32.5705 28.5947C32.5705 27.8245 32.8669 27.0859 33.3945 26.5413C33.9221 25.9967 34.6377 25.6907 35.3838 25.6907Z" fill="#153C59"/>
<path d="M35.3838 27.3742L35.3973 29.1722L35.3956 29.1722L35.3838 27.3742ZM35.6882 27.4135L35.2209 29.1498L35.2193 29.1493L35.6882 27.4135ZM35.3838 25.6907L35.3971 27.4888H35.3838V25.6907ZM37.8301 27.1357L36.2618 28.0152L36.2613 28.0142L37.8301 27.1357ZM35.3838 31.4988V29.7007L35.3898 29.7007L35.3838 31.4988ZM32.5705 28.5947H34.3686H32.5705ZM35.3956 29.1722C35.571 29.1711 35.7287 29.1007 35.8393 28.9924L33.3231 26.423C33.8674 25.89 34.5989 25.5812 35.372 25.5761L35.3956 29.1722ZM35.8393 28.9924C35.9483 28.8856 36.004 28.7511 36.0115 28.6202L32.4212 28.4147C32.4639 27.6679 32.7805 26.9544 33.3231 26.423L35.8393 28.9924ZM36.0115 28.6202C36.019 28.4893 35.979 28.3526 35.8866 28.2379L33.0861 30.494C32.6115 29.9048 32.3785 29.1615 32.4212 28.4147L36.0115 28.6202ZM35.8866 28.2379C35.7928 28.1214 35.6483 28.0336 35.4754 28.0113L35.0152 31.5779C34.2492 31.4791 33.5621 31.0848 33.0861 30.494L35.8866 28.2379ZM35.4754 28.0113C35.3019 27.9889 35.1328 28.0371 35.0042 28.1335L37.162 31.0104C36.55 31.4695 35.7818 31.6769 35.0152 31.5779L35.4754 28.0113ZM35.0042 28.1335C34.8776 28.2285 34.8036 28.3588 34.7794 28.4894L38.3149 29.147C38.1779 29.8835 37.7722 30.5528 37.162 31.0104L35.0042 28.1335ZM34.7794 28.4894C34.7552 28.6193 34.7784 28.7573 34.8525 28.8786L37.9206 27.0027C38.3138 27.6457 38.4518 28.4112 38.3149 29.147L34.7794 28.4894ZM34.8525 28.8786C34.9277 29.0015 35.0551 29.1052 35.2209 29.1498L36.1556 25.6772C36.8996 25.8774 37.5265 26.358 37.9206 27.0027L34.8525 28.8786ZM35.2193 29.1493C35.2768 29.1649 35.3367 29.1727 35.3973 29.1722L35.3703 25.5761C35.6363 25.5741 35.9009 25.6084 36.1572 25.6776L35.2193 29.1493ZM35.3705 23.8926C36.1945 23.8865 37.002 24.1061 37.7102 24.5244L35.8813 27.6208C35.7301 27.5315 35.5632 27.4875 35.3971 27.4887L35.3705 23.8926ZM37.7102 24.5244C38.418 24.9425 38.9987 25.5423 39.399 26.2572L36.2613 28.0142C36.166 27.8442 36.0329 27.7104 35.8813 27.6208L37.7102 24.5244ZM39.3985 26.2562C39.7985 26.9696 40.0071 27.775 40.0071 28.5918L36.4109 28.5919C36.4109 28.386 36.3581 28.1869 36.2618 28.0152L39.3985 26.2562ZM40.0071 28.5918C40.0071 29.4087 39.7986 30.2141 39.3986 30.9274L36.2618 29.1687C36.3581 28.9969 36.4109 28.7978 36.4109 28.5919L40.0071 28.5918ZM39.3986 30.9274C38.9984 31.6412 38.4189 32.2404 37.7128 32.6591L35.8786 29.5659C36.0316 29.4751 36.1657 29.3401 36.2618 29.1687L39.3986 30.9274ZM37.7128 32.6591C37.0064 33.078 36.2007 33.2996 35.3777 33.2969L35.3898 29.7007C35.5576 29.7013 35.7259 29.6564 35.8786 29.5659L37.7128 32.6591ZM35.3838 33.2969C34.142 33.2969 32.9631 32.7871 32.1031 31.8993L34.686 29.3971C34.8811 29.5985 35.1333 29.7007 35.3838 29.7007V33.2969ZM32.1031 31.8993C31.2449 31.0134 30.7724 29.8237 30.7724 28.5947H34.3686C34.3686 28.9061 34.489 29.1937 34.686 29.3971L32.1031 31.8993ZM30.7724 28.5947C30.7724 27.3657 31.2449 26.176 32.1031 25.2902L34.686 27.7924C34.489 27.9957 34.3686 28.2833 34.3686 28.5947H30.7724ZM32.1031 25.2902C32.9631 24.4024 34.142 23.8926 35.3838 23.8926V27.4888C35.1333 27.4888 34.8811 27.591 34.686 27.7924L32.1031 25.2902Z" fill="#153C59" mask="url(#path-6-inside-2_3758_19591)"/>
<mask id="path-8-inside-3_3758_19591" fill="white">
<path d="M15.2299 29.1463C15.5287 29.1483 15.8156 29.2675 16.0324 29.4798C16.2492 29.6922 16.3797 29.9817 16.3973 30.2896C16.4149 30.5976 16.3184 30.9009 16.1273 31.1381C15.9362 31.3753 15.6649 31.5285 15.3684 31.5668C15.0718 31.6051 14.7723 31.5255 14.5305 31.3441C14.2887 31.1628 14.1229 30.8933 14.0665 30.5904C14.0102 30.2874 14.0676 29.9737 14.2271 29.7128C14.3866 29.4519 14.6362 29.2635 14.9254 29.1856C15.0248 29.1588 15.1271 29.1456 15.2299 29.1463ZM15.2299 27.4628C14.7348 27.4592 14.2476 27.591 13.8179 27.8448C13.3882 28.0986 13.0313 28.4654 12.7835 28.9079C12.5354 29.3504 12.4047 29.8527 12.4047 30.364C12.4047 30.8754 12.5353 31.3777 12.7835 31.8202C13.0316 32.2628 13.3884 32.6299 13.818 32.8846C14.2475 33.1393 14.7345 33.2726 15.2299 33.2709C15.976 33.2709 16.6915 32.965 17.2191 32.4204C17.7467 31.8757 18.0431 31.1371 18.0431 30.3669C18.0431 29.5967 17.7467 28.858 17.2191 28.3134C16.6915 27.7688 15.976 27.4628 15.2299 27.4628Z"/>
</mask>
<path d="M15.2299 29.1463C15.5287 29.1483 15.8156 29.2675 16.0324 29.4798C16.2492 29.6922 16.3797 29.9817 16.3973 30.2896C16.4149 30.5976 16.3184 30.9009 16.1273 31.1381C15.9362 31.3753 15.6649 31.5285 15.3684 31.5668C15.0718 31.6051 14.7723 31.5255 14.5305 31.3441C14.2887 31.1628 14.1229 30.8933 14.0665 30.5904C14.0102 30.2874 14.0676 29.9737 14.2271 29.7128C14.3866 29.4519 14.6362 29.2635 14.9254 29.1856C15.0248 29.1588 15.1271 29.1456 15.2299 29.1463ZM15.2299 27.4628C14.7348 27.4592 14.2476 27.591 13.8179 27.8448C13.3882 28.0986 13.0313 28.4654 12.7835 28.9079C12.5354 29.3504 12.4047 29.8527 12.4047 30.364C12.4047 30.8754 12.5353 31.3777 12.7835 31.8202C13.0316 32.2628 13.3884 32.6299 13.818 32.8846C14.2475 33.1393 14.7345 33.2726 15.2299 33.2709C15.976 33.2709 16.6915 32.965 17.2191 32.4204C17.7467 31.8757 18.0431 31.1371 18.0431 30.3669C18.0431 29.5967 17.7467 28.858 17.2191 28.3134C16.6915 27.7688 15.976 27.4628 15.2299 27.4628Z" fill="#153C59"/>
<path d="M15.2299 29.1463L15.2164 30.9444L15.2181 30.9444L15.2299 29.1463ZM14.9254 29.1856L15.3928 30.9219L15.3944 30.9215L14.9254 29.1856ZM15.2299 27.4628L15.2165 29.2609H15.2299V27.4628ZM12.7835 28.9079L14.3519 29.7873L14.3524 29.7864L12.7835 28.9079ZM15.2299 33.2709V31.4728L15.2238 31.4729L15.2299 33.2709ZM18.0431 30.3669H16.245H18.0431ZM15.2181 30.9444C15.0427 30.9433 14.885 30.8729 14.7744 30.7645L17.2905 28.1952C16.7463 27.6622 16.0147 27.3534 15.2416 27.3483L15.2181 30.9444ZM14.7744 30.7645C14.6653 30.6578 14.6096 30.5233 14.6021 30.3923L18.1924 30.1869C18.1497 29.44 17.8331 28.7265 17.2905 28.1952L14.7744 30.7645ZM14.6021 30.3923C14.5946 30.2615 14.6346 30.1248 14.7271 30.01L17.5275 32.2661C18.0021 31.677 18.2352 30.9336 18.1924 30.1869L14.6021 30.3923ZM14.7271 30.01C14.8209 29.8936 14.9653 29.8058 15.1382 29.7835L15.5985 33.3501C16.3644 33.2513 17.0516 32.8569 17.5275 32.2661L14.7271 30.01ZM15.1382 29.7835C15.3118 29.7611 15.4809 29.8093 15.6094 29.9057L13.4516 32.7826C14.0637 33.2417 14.8318 33.449 15.5985 33.3501L15.1382 29.7835ZM15.6094 29.9057C15.736 30.0006 15.81 30.131 15.8343 30.2615L12.2987 30.9192C12.4357 31.6556 12.8415 32.3249 13.4516 32.7826L15.6094 29.9057ZM15.8343 30.2615C15.8585 30.3915 15.8353 30.5295 15.7611 30.6508L12.693 28.7748C12.2999 29.4178 12.1619 30.1833 12.2987 30.9192L15.8343 30.2615ZM15.7611 30.6508C15.686 30.7737 15.5585 30.8773 15.3928 30.9219L14.4581 27.4493C13.714 27.6496 13.0872 28.1302 12.693 28.7748L15.7611 30.6508ZM15.3944 30.9215C15.3369 30.937 15.2769 30.9448 15.2164 30.9444L15.2434 27.3483C14.9774 27.3463 14.7127 27.3805 14.4565 27.4498L15.3944 30.9215ZM15.2432 25.6648C14.4191 25.6587 13.6116 25.8783 12.9034 26.2966L14.7324 29.393C14.8836 29.3036 15.0504 29.2597 15.2165 29.2609L15.2432 25.6648ZM12.9034 26.2966C12.1957 26.7146 11.615 27.3145 11.2147 28.0293L14.3524 29.7864C14.4476 29.6163 14.5807 29.4825 14.7324 29.393L12.9034 26.2966ZM11.2152 28.0284C10.8152 28.7418 10.6066 29.5472 10.6066 30.364L14.2028 30.3641C14.2028 30.1582 14.2556 29.959 14.3519 29.7873L11.2152 28.0284ZM10.6066 30.364C10.6065 31.1808 10.8151 31.9862 11.2151 32.6996L14.3518 30.9408C14.2555 30.7691 14.2028 30.5699 14.2028 30.3641L10.6066 30.364ZM11.2151 32.6996C11.6153 33.4133 12.1948 34.0126 12.9008 34.4312L14.7351 31.338C14.5821 31.2473 14.4479 31.1122 14.3518 30.9408L11.2151 32.6996ZM12.9008 34.4312C13.6073 34.8502 14.4129 35.0718 15.2359 35.069L15.2238 31.4729C15.0561 31.4734 14.8877 31.4285 14.7351 31.338L12.9008 34.4312ZM15.2299 35.069C16.4717 35.069 17.6505 34.5593 18.5106 33.6715L15.9277 31.1692C15.7325 31.3707 15.4803 31.4728 15.2299 31.4728V35.069ZM18.5106 33.6715C19.3688 32.7856 19.8412 31.5959 19.8412 30.3669H16.245C16.245 30.6783 16.1247 30.9659 15.9277 31.1692L18.5106 33.6715ZM19.8412 30.3669C19.8412 29.1379 19.3688 27.9482 18.5106 27.0623L15.9277 29.5645C16.1247 29.7679 16.245 30.0555 16.245 30.3669H19.8412ZM18.5106 27.0623C17.6505 26.1745 16.4717 25.6647 15.2299 25.6647V29.2609C15.4803 29.2609 15.7325 29.3631 15.9277 29.5645L18.5106 27.0623Z" fill="#153C59" mask="url(#path-8-inside-3_3758_19591)"/>
<mask id="path-10-inside-4_3758_19591" fill="white">
<path d="M24.2514 29.1463C24.5502 29.1482 24.8372 29.2675 25.054 29.4798C25.2708 29.6921 25.4012 29.9816 25.4188 30.2895C25.4364 30.5975 25.3399 30.9008 25.1488 31.138C24.9578 31.3752 24.6864 31.5285 24.3899 31.5667C24.0934 31.605 23.7938 31.5254 23.5521 31.3441C23.3103 31.1627 23.1444 30.8933 23.0881 30.5903C23.0317 30.2874 23.0891 29.9736 23.2486 29.7127C23.4081 29.4519 23.6578 29.2634 23.947 29.1856C24.0463 29.1587 24.1487 29.1455 24.2514 29.1463ZM24.2514 27.4628C23.7563 27.4591 23.2691 27.5909 22.8394 27.8447C22.4097 28.0985 22.0528 28.4653 21.8051 28.9078C21.5569 29.3503 21.4262 29.8526 21.4262 30.364C21.4262 30.8753 21.5569 31.3776 21.805 31.8201C22.0531 32.2627 22.41 32.6299 22.8395 32.8846C23.269 33.1393 23.756 33.2725 24.2514 33.2709C24.9975 33.2709 25.7131 32.9649 26.2407 32.4203C26.7683 31.8757 27.0647 31.137 27.0647 30.3668C27.0647 29.5966 26.7683 28.858 26.2407 28.3134C25.7131 27.7688 24.9975 27.4628 24.2514 27.4628Z"/>
</mask>
<path d="M24.2514 29.1463C24.5502 29.1482 24.8372 29.2675 25.054 29.4798C25.2708 29.6921 25.4012 29.9816 25.4188 30.2895C25.4364 30.5975 25.3399 30.9008 25.1488 31.138C24.9578 31.3752 24.6864 31.5285 24.3899 31.5667C24.0934 31.605 23.7938 31.5254 23.5521 31.3441C23.3103 31.1627 23.1444 30.8933 23.0881 30.5903C23.0317 30.2874 23.0891 29.9736 23.2486 29.7127C23.4081 29.4519 23.6578 29.2634 23.947 29.1856C24.0463 29.1587 24.1487 29.1455 24.2514 29.1463ZM24.2514 27.4628C23.7563 27.4591 23.2691 27.5909 22.8394 27.8447C22.4097 28.0985 22.0528 28.4653 21.8051 28.9078C21.5569 29.3503 21.4262 29.8526 21.4262 30.364C21.4262 30.8753 21.5569 31.3776 21.805 31.8201C22.0531 32.2627 22.41 32.6299 22.8395 32.8846C23.269 33.1393 23.756 33.2725 24.2514 33.2709C24.9975 33.2709 25.7131 32.9649 26.2407 32.4203C26.7683 31.8757 27.0647 31.137 27.0647 30.3668C27.0647 29.5966 26.7683 28.858 26.2407 28.3134C25.7131 27.7688 24.9975 27.4628 24.2514 27.4628Z" fill="#153C59"/>
<path d="M24.2514 29.1463L24.2379 30.9443L24.2396 30.9443L24.2514 29.1463ZM23.947 29.1856L24.4143 30.9219L24.4159 30.9214L23.947 29.1856ZM24.2514 27.4628L24.2381 29.2609H24.2514V27.4628ZM21.8051 28.9078L23.3734 29.7873L23.3739 29.7863L21.8051 28.9078ZM24.2514 33.2709V31.4728L24.2453 31.4728L24.2514 33.2709ZM27.0647 30.3668H25.2666H27.0647ZM24.2396 30.9443C24.0642 30.9432 23.9065 30.8728 23.7959 30.7645L26.312 28.1951C25.7678 27.6621 25.0362 27.3533 24.2632 27.3482L24.2396 30.9443ZM23.7959 30.7645C23.6869 30.6577 23.6312 30.5232 23.6237 30.3923L27.214 30.1868C27.1712 29.44 26.8547 28.7265 26.312 28.1951L23.7959 30.7645ZM23.6237 30.3923C23.6162 30.2614 23.6562 30.1247 23.7486 30.01L26.5491 32.2661C27.0237 31.6769 27.2567 30.9336 27.214 30.1868L23.6237 30.3923ZM23.7486 30.01C23.8424 29.8935 23.9869 29.8057 24.1598 29.7834L24.62 33.35C25.386 33.2512 26.0731 32.8569 26.5491 32.2661L23.7486 30.01ZM24.1598 29.7834C24.3333 29.761 24.5024 29.8092 24.631 29.9056L22.4731 32.7825C23.0852 33.2416 23.8534 33.449 24.62 33.35L24.1598 29.7834ZM24.631 29.9056C24.7576 30.0006 24.8315 30.1309 24.8558 30.2615L21.3203 30.9191C21.4573 31.6556 21.863 32.3249 22.4731 32.7825L24.631 29.9056ZM24.8558 30.2615C24.88 30.3914 24.8568 30.5294 24.7827 30.6507L21.7146 28.7748C21.3214 29.4178 21.1834 30.1833 21.3203 30.9191L24.8558 30.2615ZM24.7827 30.6507C24.7075 30.7736 24.58 30.8773 24.4143 30.9219L23.4796 27.4493C22.7355 27.6495 22.1087 28.1301 21.7146 28.7748L24.7827 30.6507ZM24.4159 30.9214C24.3584 30.937 24.2985 30.9448 24.2379 30.9443L24.2649 27.3482C23.9989 27.3462 23.7342 27.3805 23.478 27.4497L24.4159 30.9214ZM24.2647 25.6647C23.4407 25.6586 22.6332 25.8782 21.925 26.2965L23.7539 29.3929C23.9051 29.3036 24.072 29.2596 24.2381 29.2608L24.2647 25.6647ZM21.925 26.2965C21.2172 26.7146 20.6365 27.3144 20.2362 28.0292L23.3739 29.7863C23.4692 29.6163 23.6022 29.4825 23.7539 29.3929L21.925 26.2965ZM20.2367 28.0283C19.8367 28.7417 19.6281 29.5471 19.6281 30.3639L23.2243 30.364C23.2243 30.1581 23.2771 29.959 23.3734 29.7873L20.2367 28.0283ZM19.6281 30.3639C19.6281 31.1807 19.8366 31.9862 20.2366 32.6995L23.3734 30.9408C23.2771 30.769 23.2243 30.5699 23.2243 30.364L19.6281 30.3639ZM20.2366 32.6995C20.6368 33.4133 21.2163 34.0125 21.9224 34.4312L23.7566 31.338C23.6036 31.2472 23.4695 31.1121 23.3734 30.9408L20.2366 32.6995ZM21.9224 34.4312C22.6288 34.8501 23.4345 35.0717 24.2575 35.069L24.2453 31.4728C24.0776 31.4734 23.9092 31.4285 23.7566 31.338L21.9224 34.4312ZM24.2514 35.069C25.4932 35.069 26.6721 34.5592 27.5321 33.6714L24.9492 31.1692C24.7541 31.3706 24.5019 31.4728 24.2514 31.4728V35.069ZM27.5321 33.6714C28.3903 32.7855 28.8628 31.5958 28.8628 30.3668H25.2666C25.2666 30.6782 25.1462 30.9658 24.9492 31.1692L27.5321 33.6714ZM28.8628 30.3668C28.8628 29.1378 28.3903 27.9481 27.5321 27.0623L24.9492 29.5645C25.1462 29.7678 25.2666 30.0554 25.2666 30.3668H28.8628ZM27.5321 27.0623C26.6721 26.1745 25.4932 25.6647 24.2514 25.6647V29.2609C24.5019 29.2609 24.7541 29.3631 24.9492 29.5645L27.5321 27.0623Z" fill="#153C59" mask="url(#path-10-inside-4_3758_19591)"/>
<path d="M37.2139 8.52411L37.2139 15.2908" stroke="#153C59" stroke-width="2.25539" stroke-miterlimit="10" stroke-linecap="round"/>
<path d="M23.6114 22.6202L23.6114 28.957" stroke="#153C59" stroke-width="2.25539"/>
<path d="M15.4136 22.718L15.4136 28.1299" stroke="#153C59" stroke-width="2.25539"/>
<path d="M9.03548 8.80824C9.00412 8.89343 9.0355 11.2195 9.0355 11.2195C9.03762 13.889 9.04714 16.419 9.02704 18.9473C9.01435 19.743 9.30204 20.1168 9.75472 20.42C16.3877 24.8574 23.0242 24.8574 29.6642 20.42C30.2142 20.0526 30.4058 19.7357 30.3941 18.8903C30.3613 16.5545 30.3928 10.2945 30.4477 7.96033" stroke="#153C59" stroke-width="2.25539" stroke-miterlimit="10"/>
<path d="M37.3924 6.9252C32.112 5.09094 26.832 3.25441 21.5525 1.41558C20.7798 1.12691 19.938 1.12015 19.1613 1.39638C13.8524 3.25075 8.53998 5.09185 3.22414 6.91971C2.86494 7.0431 2.53427 7.22132 2.41886 7.45848C2.40495 7.48793 2.39366 7.51868 2.38514 7.55034C2.29904 7.69168 2.25396 7.85656 2.25547 8.02467C2.25547 8.72108 2.7599 8.82938 3.20728 8.98429C8.5188 10.8332 13.8303 12.6825 19.1418 14.5323C19.9204 14.8036 20.7626 14.7901 21.533 14.4939C24.6012 13.4109 27.6758 12.3471 30.7478 11.2792C32.8888 10.5732 35.0271 9.8603 37.2095 9.10356C37.6569 8.94728 38.3494 8.58399 38.3416 7.88758C38.3338 7.19116 37.8437 7.08286 37.3924 6.9252Z" fill="#153C59"/>
<mask id="path-17-inside-5_3758_19591" fill="white">
<path d="M37.7838 16.4098C38.0826 16.4118 38.3695 16.531 38.5863 16.7433C38.8031 16.9556 38.9336 17.2451 38.9512 17.5531C38.9688 17.861 38.8723 18.1644 38.6812 18.4016C38.4901 18.6387 38.2188 18.792 37.9222 18.8303C37.6257 18.8685 37.3262 18.7889 37.0844 18.6076C36.8426 18.4263 36.6768 18.1568 36.6204 17.8539C36.5641 17.5509 36.6215 17.2371 36.781 16.9763C36.9405 16.7154 37.1901 16.527 37.4793 16.4491C37.5787 16.4223 37.681 16.4091 37.7838 16.4098ZM37.7838 14.7263C37.2887 14.7227 36.8015 14.8544 36.3718 15.1083C35.9421 15.3621 35.5852 15.7289 35.3374 16.1713C35.0893 16.6139 34.9586 17.1162 34.9586 17.6275C34.9585 18.1389 35.0892 18.6411 35.3373 19.0837C35.5855 19.5263 35.9423 19.8934 36.3719 20.1481C36.8014 20.4028 37.2884 20.5361 37.7838 20.5344C38.5299 20.5344 39.2454 20.2285 39.773 19.6838C40.3006 19.1392 40.597 18.4006 40.597 17.6304C40.597 16.8602 40.3006 16.1215 39.773 15.5769C39.2454 15.0323 38.5299 14.7263 37.7838 14.7263Z"/>
</mask>
<path d="M37.7838 16.4098C38.0826 16.4118 38.3695 16.531 38.5863 16.7433C38.8031 16.9556 38.9336 17.2451 38.9512 17.5531C38.9688 17.861 38.8723 18.1644 38.6812 18.4016C38.4901 18.6387 38.2188 18.792 37.9222 18.8303C37.6257 18.8685 37.3262 18.7889 37.0844 18.6076C36.8426 18.4263 36.6768 18.1568 36.6204 17.8539C36.5641 17.5509 36.6215 17.2371 36.781 16.9763C36.9405 16.7154 37.1901 16.527 37.4793 16.4491C37.5787 16.4223 37.681 16.4091 37.7838 16.4098ZM37.7838 14.7263C37.2887 14.7227 36.8015 14.8544 36.3718 15.1083C35.9421 15.3621 35.5852 15.7289 35.3374 16.1713C35.0893 16.6139 34.9586 17.1162 34.9586 17.6275C34.9585 18.1389 35.0892 18.6411 35.3373 19.0837C35.5855 19.5263 35.9423 19.8934 36.3719 20.1481C36.8014 20.4028 37.2884 20.5361 37.7838 20.5344C38.5299 20.5344 39.2454 20.2285 39.773 19.6838C40.3006 19.1392 40.597 18.4006 40.597 17.6304C40.597 16.8602 40.3006 16.1215 39.773 15.5769C39.2454 15.0323 38.5299 14.7263 37.7838 14.7263Z" fill="#153C59"/>
<path d="M37.7838 16.4098L37.7703 18.2079L37.772 18.2079L37.7838 16.4098ZM37.4793 16.4491L37.9467 18.1854L37.9483 18.185L37.4793 16.4491ZM37.7838 14.7263L37.7704 16.5244H37.7838V14.7263ZM35.3374 16.1713L36.9058 17.0508L36.9063 17.0499L35.3374 16.1713ZM37.7838 20.5344V18.7363L37.7777 18.7363L37.7838 20.5344ZM40.597 17.6304H38.7989H40.597ZM37.772 18.2079C37.5966 18.2067 37.4389 18.1364 37.3282 18.028L39.8444 15.4587C39.3002 14.9257 38.5686 14.6168 37.7955 14.6118L37.772 18.2079ZM37.3282 18.028C37.2192 17.9213 37.1635 17.7868 37.156 17.6558L40.7463 17.4504C40.7036 16.7035 40.387 15.99 39.8444 15.4587L37.3282 18.028ZM37.156 17.6558C37.1485 17.5249 37.1885 17.3883 37.281 17.2735L40.0814 19.5296C40.556 18.9405 40.7891 18.1971 40.7463 17.4504L37.156 17.6558ZM37.281 17.2735C37.3748 17.1571 37.5192 17.0693 37.6921 17.047L38.1524 20.6136C38.9183 20.5148 39.6055 20.1204 40.0814 19.5296L37.281 17.2735ZM37.6921 17.047C37.8657 17.0246 38.0348 17.0728 38.1633 17.1692L36.0055 20.0461C36.6176 20.5051 37.3857 20.7125 38.1524 20.6136L37.6921 17.047ZM38.1633 17.1692C38.2899 17.2641 38.3639 17.3945 38.3882 17.525L34.8526 18.1827C34.9896 18.9191 35.3954 19.5884 36.0055 20.0461L38.1633 17.1692ZM38.3882 17.525C38.4124 17.655 38.3892 17.793 38.315 17.9142L35.2469 16.0383C34.8538 16.6813 34.7157 17.4468 34.8526 18.1827L38.3882 17.525ZM38.315 17.9142C38.2399 18.0371 38.1124 18.1408 37.9467 18.1854L37.012 14.7128C36.2679 14.9131 35.641 15.3937 35.2469 16.0383L38.315 17.9142ZM37.9483 18.185C37.8908 18.2005 37.8308 18.2083 37.7703 18.2079L37.7972 14.6118C37.5312 14.6098 37.2666 14.644 37.0103 14.7133L37.9483 18.185ZM37.7971 12.9283C36.973 12.9222 36.1655 13.1418 35.4573 13.5601L37.2863 16.6564C37.4375 16.5671 37.6043 16.5231 37.7704 16.5244L37.7971 12.9283ZM35.4573 13.5601C34.7496 13.9781 34.1689 14.578 33.7686 15.2928L36.9063 17.0499C37.0015 16.8798 37.1346 16.746 37.2863 16.6564L35.4573 13.5601ZM33.7691 15.2919C33.369 16.0052 33.1605 16.8107 33.1605 17.6275L36.7567 17.6276C36.7567 17.4217 36.8095 17.2225 36.9058 17.0508L33.7691 15.2919ZM33.1605 17.6275C33.1604 18.4443 33.369 19.2497 33.769 19.9631L36.9057 18.2043C36.8094 18.0326 36.7566 17.8334 36.7567 17.6276L33.1605 17.6275ZM33.769 19.9631C34.1691 20.6768 34.7487 21.2761 35.4547 21.6947L37.289 18.6015C37.136 18.5108 37.0018 18.3757 36.9057 18.2043L33.769 19.9631ZM35.4547 21.6947C36.1612 22.1136 36.9668 22.3353 37.7898 22.3325L37.7777 18.7363C37.61 18.7369 37.4416 18.692 37.289 18.6015L35.4547 21.6947ZM37.7838 22.3325C39.0256 22.3325 40.2044 21.8228 41.0645 20.935L38.4816 18.4327C38.2864 18.6342 38.0342 18.7363 37.7838 18.7363V22.3325ZM41.0645 20.935C41.9227 20.0491 42.3951 18.8594 42.3951 17.6304H38.7989C38.7989 17.9418 38.6786 18.2294 38.4816 18.4327L41.0645 20.935ZM42.3951 17.6304C42.3951 16.4013 41.9227 15.2117 41.0645 14.3258L38.4816 16.828C38.6786 17.0314 38.7989 17.319 38.7989 17.6304H42.3951ZM41.0645 14.3258C40.2044 13.438 39.0256 12.9282 37.7838 12.9282V16.5244C38.0342 16.5244 38.2864 16.6266 38.4816 16.828L41.0645 14.3258Z" fill="#153C59" mask="url(#path-17-inside-5_3758_19591)"/>
</g>
<defs>
<clipPath id="clip0_3758_19591">
<rect width="160" height="33.4328" fill="white"/>
</clipPath>
</defs>
</svg>
